<svg id="Capa_1" enable-background="new 0 0 512 512" height="512" viewBox="0 0 512 512" width="512" xmlns="http://www.w3.org/2000/svg"><path d="m421.688 263.594c-3.395 0-6.744.195-10.043.562l-32.776-114.717 27.339-18.227c9.654-6.436 15.418-17.205 15.418-28.808 0-19.091-15.532-34.623-34.623-34.623h-70.753v30h70.752c2.549 0 4.623 2.074 4.623 4.623 0 1.549-.77 2.987-2.059 3.847l-45.559 30.373 8.717 30.508-113.274 81.399h-28.081l-25.857-90.5h3.478c8.34 0 15.125 6.785 15.125 15.125h30c0-24.882-20.243-45.125-45.125-45.125h-46.728c-8.34 0-15.125-6.785-15.125-15.125h-30c0 24.882 20.243 45.125 45.125 45.125h12.049l12.278 42.972-42.938 68.97c-10.32-4.114-21.569-6.379-33.338-6.379-49.799 0-90.313 40.513-90.313 90.312s40.514 90.312 90.312 90.312c44.689 0 81.894-32.628 89.06-75.312h3.951c6.198 17.529 22.927 30.125 42.552 30.125 24.882 0 45.125-20.243 45.125-45.125 0-6.859-1.545-13.363-4.295-19.19l104.471-103 11.625 40.688c-30.388 14.557-51.426 45.618-51.426 81.502 0 49.799 40.514 90.312 90.312 90.312s90.313-40.513 90.313-90.312-40.514-90.312-90.312-90.312zm-243.983-23.683 22.064 77.224c-7.51 5.347-13.319 12.928-16.445 21.772h-3.951c-3.555-21.175-14.499-39.876-30.087-53.345zm-44.563 71.58c7.416 7.488 12.892 16.9 15.593 27.415h-32.661zm-42.83 102.728c-33.256 0-60.312-27.056-60.312-60.313s27.056-60.312 60.312-60.312c5.935 0 11.667.876 17.089 2.481l-32.089 51.544v21.288h73.423c-6.684 26.023-30.343 45.312-58.423 45.312zm135.563-45.188c-8.34 0-15.125-6.785-15.125-15.125s6.785-15.125 15.125-15.125 15.125 6.785 15.125 15.125-6.785 15.125-15.125 15.125zm19.768-55.679c-5.2-2.545-10.957-4.115-17.035-4.48l-8.669-30.34h29.171l112.37-80.75.304 1.065zm176.045 100.867c-33.256 0-60.312-27.056-60.312-60.312 0-22.149 12.009-41.534 29.849-52.021l18.714 65.498 28.846-8.242-18.716-65.506c.54-.014 1.077-.041 1.62-.041 33.256 0 60.312 27.056 60.312 60.312s-27.057 60.312-60.313 60.312z"/></svg>