<svg width="24" height="20" viewBox="0 0 24 20" fill="none" xmlns="http://www.w3.org/2000/svg">
<path d="M7.539 19.5C16.596 19.5 21.5505 11.9955 21.5505 5.499C21.5505 5.289 21.5505 5.076 21.5415 4.866C22.5061 4.16773 23.3386 3.30323 24 2.313C23.099 2.71028 22.1441 2.97211 21.1665 3.09C22.1963 2.47446 22.9676 1.50595 23.337 0.364502C22.3695 0.937688 21.3105 1.34006 20.2065 1.554C19.4643 0.763538 18.4821 0.239879 17.4121 0.0641383C16.3422 -0.111602 15.2441 0.0703843 14.288 0.581908C13.3319 1.09343 12.5712 1.90595 12.1237 2.89359C11.6761 3.88124 11.5668 4.9889 11.8125 6.045C9.85461 5.94683 7.93922 5.4382 6.19056 4.55212C4.4419 3.66603 2.89903 2.42227 1.662 0.901502C1.03401 1.98613 0.842361 3.2691 1.12597 4.4899C1.40958 5.7107 2.14718 6.7778 3.189 7.4745C2.40831 7.44798 1.64478 7.23834 0.96 6.8625V6.93C0.961346 8.06622 1.35496 9.16713 2.07431 10.0466C2.79366 10.9262 3.79462 11.5303 4.908 11.757C4.48539 11.8734 4.04884 11.9315 3.6105 11.9295C3.30148 11.9304 2.99307 11.9018 2.6895 11.844C3.00418 12.8221 3.61691 13.6773 4.44187 14.2897C5.26683 14.9022 6.2627 15.2413 7.29 15.2595C5.54483 16.6302 3.3891 17.3736 1.17 17.37C0.778981 17.3717 0.388235 17.3491 0 17.3025C2.25227 18.7384 4.86795 19.5008 7.539 19.5V19.5Z" fill="white"/>
</svg>
